TITLE ""
FILE "2Q_t_0688-0700.mp3" MP3
  TRACK 01 AUDIO
    TITLE "2Q_t_0688-0700_01"
    INDEX 01 00:00:00
  TRACK 02 AUDIO
    TITLE "2Q_t_0688-0700_02"
    INDEX 01 00:00:16
  TRACK 03 AUDIO
    TITLE "2Q_t_0688-0700_03"
    INDEX 01 00:01:23
  TRACK 04 AUDIO
    TITLE "2Q_t_0688-0700_04"
    INDEX 01 00:01:69
  TRACK 05 AUDIO
    TITLE "2Q_t_0688-0700_05"
    INDEX 01 00:02:74
  TRACK 06 AUDIO
    TITLE "2Q_t_0688-0700_06"
    INDEX 01 00:03:50
  TRACK 07 AUDIO
    TITLE "2Q_t_0688-0700_07"
    INDEX 01 00:07:40
  TRACK 08 AUDIO
    TITLE "2Q_t_0688-0700_08"
    INDEX 01 00:08:10
  TRACK 09 AUDIO
    TITLE "2Q_t_0688-0700_09"
    INDEX 01 00:09:21
  TRACK 10 AUDIO
    TITLE "2Q_t_0688-0700_10"
    INDEX 01 00:09:70
  TRACK 11 AUDIO
    TITLE "2Q_t_0688-0700_11"
    INDEX 01 00:13:29
  TRACK 12 AUDIO
    TITLE "2Q_t_0688-0700_12"
    INDEX 01 00:13:74
  TRACK 13 AUDIO
    TITLE "2Q_t_0688-0700_13"
    INDEX 01 00:15:06
  TRACK 14 AUDIO
    TITLE "2Q_t_0688-0700_14"
    INDEX 01 00:15:55
  TRACK 15 AUDIO
    TITLE "2Q_t_0688-0700_15"
    INDEX 01 00:17:73
  TRACK 16 AUDIO
    TITLE "2Q_t_0688-0700_16"
    INDEX 01 00:18:43
  TRACK 17 AUDIO
    TITLE "2Q_t_0688-0700_17"
    INDEX 01 00:19:53
  TRACK 18 AUDIO
    TITLE "2Q_t_0688-0700_18"
    INDEX 01 00:20:27
  TRACK 19 AUDIO
    TITLE "2Q_t_0688-0700_19"
    INDEX 01 00:22:33
  TRACK 20 AUDIO
    TITLE "2Q_t_0688-0700_20"
    INDEX 01 00:23:03
  TRACK 21 AUDIO
    TITLE "2Q_t_0688-0700_21"
    INDEX 01 00:24:19
  TRACK 22 AUDIO
    TITLE "2Q_t_0688-0700_22"
    INDEX 01 00:24:66
  TRACK 23 AUDIO
    TITLE "2Q_t_0688-0700_23"
    INDEX 01 00:26:59
  TRACK 24 AUDIO
    TITLE "2Q_t_0688-0700_24"
    INDEX 01 00:27:31
  TRACK 25 AUDIO
    TITLE "2Q_t_0688-0700_25"
    INDEX 01 00:28:44
  TRACK 26 AUDIO
    TITLE "2Q_t_0688-0700_26"
    INDEX 01 00:29:18
  TRACK 27 AUDIO
    TITLE "2Q_t_0688-0700_27"
    INDEX 01 00:31:38
  TRACK 28 AUDIO
    TITLE "2Q_t_0688-0700_28"
    INDEX 01 00:32:08
  TRACK 29 AUDIO
    TITLE "2Q_t_0688-0700_29"
    INDEX 01 00:33:29
  TRACK 30 AUDIO
    TITLE "2Q_t_0688-0700_30"
    INDEX 01 00:34:01
  TRACK 31 AUDIO
    TITLE "2Q_t_0688-0700_31"
    INDEX 01 00:36:16
  TRACK 32 AUDIO
    TITLE "2Q_t_0688-0700_32"
    INDEX 01 00:36:57
  TRACK 33 AUDIO
    TITLE "2Q_t_0688-0700_33"
    INDEX 01 00:38:21
  TRACK 34 AUDIO
    TITLE "2Q_t_0688-0700_34"
    INDEX 01 00:38:70
  TRACK 35 AUDIO
    TITLE "2Q_t_0688-0700_35"
    INDEX 01 00:40:74
  TRACK 36 AUDIO
    TITLE "2Q_t_0688-0700_36"
    INDEX 01 00:41:45
  TRACK 37 AUDIO
    TITLE "2Q_t_0688-0700_37"
    INDEX 01 00:42:64
  TRACK 38 AUDIO
    TITLE "2Q_t_0688-0700_38"
    INDEX 01 00:43:36
  TRACK 39 AUDIO
    TITLE "2Q_t_0688-0700_39"
    INDEX 01 00:44:47
  TRACK 40 AUDIO
    TITLE "2Q_t_0688-0700_40"
    INDEX 01 00:45:17
  TRACK 41 AUDIO
    TITLE "2Q_t_0688-0700_41"
    INDEX 01 00:46:50
  TRACK 42 AUDIO
    TITLE "2Q_t_0688-0700_42"
    INDEX 01 00:47:27
  TRACK 43 AUDIO
    TITLE "2Q_t_0688-0700_43"
    INDEX 01 00:48:39
  TRACK 44 AUDIO
    TITLE "2Q_t_0688-0700_44"
    INDEX 01 00:49:09
  TRACK 45 AUDIO
    TITLE "2Q_t_0688-0700_45"
    INDEX 01 00:50:26
  TRACK 46 AUDIO
    TITLE "2Q_t_0688-0700_46"
    INDEX 01 00:50:75
  TRACK 47 AUDIO
    TITLE "2Q_t_0688-0700_47"
    INDEX 01 00:52:38
  TRACK 48 AUDIO
    TITLE "2Q_t_0688-0700_48"
    INDEX 01 00:53:09
  TRACK 49 AUDIO
    TITLE "2Q_t_0688-0700_49"
    INDEX 01 00:54:41
  TRACK 50 AUDIO
    TITLE "2Q_t_0688-0700_50"
    INDEX 01 00:55:13
  TRACK 51 AUDIO
    TITLE "2Q_t_0688-0700_51"
    INDEX 01 00:56:26
  TRACK 52 AUDIO
    TITLE "2Q_t_0688-0700_52"
    INDEX 01 00:56:72
  TRACK 53 AUDIO
    TITLE "2Q_t_0688-0700_53"
    INDEX 01 00:58:12
  TRACK 54 AUDIO
    TITLE "2Q_t_0688-0700_54"
    INDEX 01 00:58:57
  TRACK 55 AUDIO
    TITLE "2Q_t_0688-0700_55"
    INDEX 01 00:59:66
  TRACK 56 AUDIO
    TITLE "2Q_t_0688-0700_56"
    INDEX 01 01:00:38
  TRACK 57 AUDIO
    TITLE "2Q_t_0688-0700_57"
    INDEX 01 01:02:33
